<svg width="361" height="137" viewBox="0 0 361 137" fill="none" xmlns="http://www.w3.org/2000/svg">
<path d="M60.0131 137C45.4645 137 34.7411 131.609 27.8431 120.826V135.097H0V5.1375H27.8431V57.6542C31.104 51.9458 35.7445 47.5694 41.7646 44.525C47.7847 41.4806 54.7455 39.9583 62.6469 39.9583C72.1787 39.9583 80.5191 41.9245 87.668 45.8569C94.9423 49.7894 100.523 55.3708 104.411 62.6014C108.299 69.7051 110.243 78.0139 110.243 87.5278C110.243 96.9148 108.049 105.35 103.659 112.835C99.3947 120.319 93.4373 126.218 85.7867 130.531C78.1361 134.844 69.5449 137 60.0131 137ZM55.3099 127.486C63.7129 127.486 70.2974 123.934 75.0634 116.831C79.9547 109.6 82.4004 99.8324 82.4004 87.5278C82.4004 75.2232 80.0801 65.7727 75.4396 59.1764C70.9245 52.4532 64.4027 49.0917 55.8742 49.0917C47.2203 49.0917 40.385 52.6435 35.3682 59.7472C30.3514 66.7241 27.8431 76.238 27.8431 88.2889C27.8431 100.34 30.2887 109.917 35.1801 117.021C40.0714 123.998 46.7813 127.486 55.3099 127.486Z" fill="#FD6244"/>
<path d="M166.146 137C156.739 137 149.528 134.653 144.511 129.96C139.619 125.139 137.174 118.162 137.174 109.029V51.7556H120.807L124.193 41.8611H137.738L144.323 15.6028H165.017V41.8611H190.414L187.404 51.7556H165.017V110.932C165.017 116.133 166.083 120.065 168.215 122.729C170.347 125.393 173.42 126.725 177.433 126.725C181.948 126.725 186.464 125.52 190.979 123.11V133.194C185.209 135.731 176.932 137 166.146 137Z" fill="#FD6244"/>
<path d="M224.539 32.3472C219.397 32.3472 215.133 30.825 211.746 27.7806C208.485 24.7361 206.855 20.8671 206.855 16.1736C206.855 11.4801 208.485 7.61111 211.746 4.56666C215.133 1.52222 219.397 0 224.539 0C229.681 0 233.883 1.52222 237.144 4.56666C240.53 7.61111 242.223 11.4801 242.223 16.1736C242.223 20.8671 240.53 24.7361 237.144 27.7806C233.883 30.825 229.681 32.3472 224.539 32.3472ZM210.617 41.8611H238.461V135.097H210.617V41.8611Z" fill="#FD6244"/>
<path d="M331.088 135.097L304.561 102.369L275.213 135.097H255.46L294.967 90.5722L255.46 41.8611H286.125L312.087 74.2083L338.801 41.8611H357.802L321.305 85.625L361 135.097H331.088Z" fill="#FD6244"/>
</svg>
